<svg xmlns="http://www.w3.org/2000/svg" version="1.1" xmlns:xlink="http://www.w3.org/1999/xlink" xmlns:svgjs="http://svgjs.dev/svgjs" viewBox="0 0 800 800"><g stroke-width="2" stroke="hsl(280, 58%, 33%)" fill="none"><path d="M720.9023330072569 99.13565371536504C770.0305086883886 216.87824139744146 703.8226934177909 493.60380922743195 604.605020786982 627.9119557851777C505.3873481561732 762.2201023429234 348.4515997763116 787.557641371958 244.6575043793748 743.8147571925456C140.86340898243805 700.0718730131332 143.15026600239548 524.4148124232024 106.39336288168602 417.9461117239989C69.6364597609766 311.4774110247952 52.771123318135096 303.02723947322556 68.22436939996959 232.76499383636747C83.67761548180414 162.50274819950937 117.9511507166635 116.10763660982099 180.56894407449238 80.68733266707977C243.18673743232125 45.2670287243385 256.2203214898891 58.90413469281748 368.7897775175484 62.74753491121015C481.35923354520764 66.59093512960277 671.7741573261247 -18.606933966711438 720.9023330072569 99.13565371536504C770.0305086883886 216.87824139744146 703.8226934177909 493.60380922743195 604.605020786982 627.9119557851777 "></path><path d="M709.0171235798323 110.27874600397416C756.3257371987002 223.66049710523293 692.5700632344207 490.13696983040904 597.0271192195677 619.4707405897198C501.4841752047148 748.8045113490305 350.36086195003327 773.2036230066192 250.41099230853865 731.0808456486666C150.46112266704392 688.9580682907139 152.66328127885475 519.8068247596696 117.26774494039387 417.28140927154743C81.87220860193293 314.75599378342554 65.63151424956698 306.6187915485806 80.51241788392616 238.95885130568024C95.39332151828535 171.29891106277978 128.39746655926103 126.62213693937622 188.69608238531845 92.5136961056254C248.99469821137586 58.40525527187458 261.5455569334782 71.53728324152098 369.94577384900197 75.23833530367688C478.3459907645257 78.93938736583277 661.7085099609644 -3.1030050972846084 709.0171235798323 110.27874600397416C756.3257371987002 223.66049710523293 692.5700632344207 490.13696983040904 597.0271192195677 619.4707405897198 "></path><path d="M697.1317920820953 121.4218993277396C742.620843638699 230.44281384818078 681.3173109807381 486.67019146854227 589.449095581841 611.029586429418C497.58088018294393 735.3889813902938 352.27000205344234 758.8496656764369 256.1643581673899 718.3469951399438C160.0587142813373 677.8443246034508 162.17617448500158 515.1988981312927 128.14200492878916 416.61676785425243C94.10783537257674 318.03463757721204 78.49178311068641 310.21040465909186 92.80034429757023 245.15276981014927C107.10890548445406 180.09513496120655 138.84366033154606 137.1366983040877 196.82309862583207 104.34012057932733C254.80253692011797 71.54354285456691 266.87067030675485 84.17049282538079 371.10164811014306 87.72919673129991C475.3326259135313 91.28790063721902 651.6427405254917 12.400984807298414 697.1317920820953 121.4218993277396C742.620843638699 230.44281384818078 681.3173109807381 486.67019146854227 589.449095581841 611.029586429418 "></path><path d="M685.246582654671 132.5650221339269C728.9160721490103 237.22510007355038 670.0646807973679 483.2033825890975 581.8711940144267 602.5884017515382C493.67770723148556 721.9734209139789 354.17926422716414 744.4956778286762 261.9178460965536 705.613114113643C169.65642796594318 666.7305503986097 171.6891897614609 510.59094098533785 139.01638698749696 415.9520959193792C106.34358421353306 321.3132508534204 91.35217404211835 313.8019872520251 105.0883927815268 251.34665779704017C118.82461152093526 188.89132834205515 149.2899761741436 147.65122915122106 204.95023693665814 116.16651453545109C260.6104976991727 84.68179991968111 272.1959057503441 96.80367189166242 372.25764444159677 100.22002764134476C472.31938313284945 103.63638339102715 641.5770931603314 27.90494419430337 685.246582654671 132.5650221339269C728.9160721490103 237.22510007355038 670.0646807973679 483.2033825890975 581.8711940144267 602.5884017515382 "></path><path d="M673.3613121920902 143.70811442253603C715.2112396241656 244.00735578134186 658.8119895788415 479.7365431920746 574.2932314118561 594.1471865560802C489.77447324487093 708.5578299200859 356.08846536572946 730.1416594633375 267.6712729905612 692.879202569764C179.2540806153928 655.6167456761904 181.20214400276393 505.98295332180487 149.8907080110485 415.2873934669278C118.57927201933308 324.59183361205066 104.21250393839398 317.39353932738027 117.37638023032713 257.54051526635294C130.54025652226028 197.6874912053256 159.73623098158492 158.16572948077635 213.07731421232796 127.99287797399677C266.41839744307106 97.82002646721719 277.52108015877707 109.43682044036592 373.4135797378942 112.71082803381154C469.3060793170114 115.9848356272571 631.5113847600148 43.4088730637302 673.3613121920902 143.70811442253603C715.2112396241656 244.00735578134186 658.8119895788415 479.7365431920746 574.2932314118561 594.1471865560802 "></path><path d="M661.4760112119313 154.85123722872333C701.5063765817425 250.78964200671157 647.5592678427371 476.2697343126297 566.7152382917076 585.7060018782004C485.8712087406782 695.1422694437709 357.9976359867169 715.7876716155769 273.42466936699066 680.1453215434631C188.8517027472643 644.5029714713493 190.71506772648888 501.37499617585013 160.76499851702198 414.6227215320546C130.81492930755502 327.87044688825904 117.07280331709154 320.9851219203133 129.66433716154933 263.73440325324384C142.2558710060071 206.48368458617426 170.18245527144808 168.6802603279097 221.2043609704197 139.81927193012052C272.2262666693914 110.9582835323314 282.8462240496318 122.0699995066476 374.56948451661344 125.20165894385639C466.29274498359507 128.33331838106523 621.4456458421203 58.91283245073515 661.4760112119313 154.85123722872333C701.5063765817425 250.78964200671157 647.5592678427371 476.2697343126297 566.7152382917076 585.7060018782004 "></path><path d="M649.5907407493507 165.99436003491064C687.8015440568978 257.5719282320812 636.3065766242106 472.8029254331848 559.137275689137 577.2648172003205C481.96797475406356 681.726708967456 359.9068371252823 701.4336837678163 279.17809626099813 667.4114405171621C198.44935539671394 633.3891972665081 200.22802196779196 496.7670390298953 171.63931954057352 413.95804959718134C143.0506171133551 331.1490601644675 129.93313321336723 324.57670451324657 141.95232461034965 269.92829124013474C153.97151600733207 215.27987796702286 180.62871007888936 179.19479117504306 229.33143824608953 151.64566588624433C278.03416641328977 124.0965405974456 288.1713984580647 134.70317857292923 375.7254198129109 137.6924898539013C463.2794411677569 140.68180113487335 611.3799374418037 74.41679183774005 649.5907407493507 165.99436003491064C687.8015440568978 257.5719282320812 636.3065766242106 472.8029254331848 559.137275689137 577.2648172003205 "></path><path d="M637.70547028677 177.1374828410979C674.096711532053 264.35421445745084 625.0538854056842 469.3361165537401 551.5593130865665 568.8236325224407C478.0647407674488 668.3111484911412 361.81603826384776 687.0796959200557 284.93152315500566 654.6775594908613C208.04700804616357 622.2754230616669 209.74097620909504 492.1590818839404 182.51364056412507 413.2933776623081C155.28630491915516 334.4276734406758 142.79346310964286 328.1682871061797 154.24031205914997 276.12217922702564C165.68716100865703 224.07607134787145 191.07496488633063 189.70932202217642 237.4585155217594 163.47205984236808C283.8420661571881 137.2347976625598 293.4965728664977 147.33635763921086 376.88135510920824 150.18332076394614C460.2661373519188 153.03028388868148 601.3142290414871 89.920751224745 637.70547028677 177.1374828410979C674.096711532053 264.35421445745084 625.0538854056842 469.3361165537401 551.5593130865665 568.8236325224407 "></path><path d="M625.8201998241893 188.28062090607426C660.3918790072082 271.13651594160956 613.8011941871578 465.8693229330843 543.981350483996 560.3824631033499C474.1615067808343 654.8956032736155 363.7252394024131 672.725723331084 290.6849500490132 641.9436937233495C217.64466069561325 611.1616641156148 219.25393045039806 487.5511399967746 193.3879615876766 412.6287209862239C167.52199272495517 337.70630197567334 155.65379300591854 331.75988495790205 166.52829950795024 282.3160824727056C177.402806009982 232.87227998750916 201.5212196937719 200.22386812809884 245.58559279742923 175.29846905728095C289.6499659010866 150.37306998646307 298.82174727493054 159.96955196428155 378.0372904055057 162.6741669327801C457.25283353608074 165.37878190127861 591.2485206411706 105.42472587053902 625.8201998241893 188.28062090607426C660.3918790072082 271.13651594160956 613.8011941871578 465.8693229330843 543.981350483996 560.3824631033499 "></path><path d="M613.9349141028197 199.42374371226157C646.6870312235742 277.91880216697916 602.5484877098423 462.4025140536395 536.4033726226364 551.94127842547C470.2582575354305 641.4800427973005 365.63442528218945 658.3717354833235 296.43836168423167 629.2098126970486C227.24229808627382 600.0478899107736 228.76686943291207 482.94318285081977 204.26226735243915 411.9640490513507C179.75766527196618 340.9849152518817 168.51410764340517 335.3514675508352 178.8162716979615 288.5099704595965C189.11843575251788 241.66847336835775 211.96745924242413 210.7383989752322 253.71265481430999 187.1248630134047C295.4578503861959 163.51132705157727 304.14690642457447 172.60273103056323 379.193210443014 175.16499784282496C454.2395144614535 177.72726465508674 581.1827969820649 120.92868525754392 613.9349141028197 199.42374371226157C646.6870312235742 277.91880216697916 602.5484877098423 462.4025140536395 536.4033726226364 551.94127842547 "></path><path d="M602.0496131226607 210.56686651844888C632.9821681811512 284.7010883923489 591.2957659737378 458.9357051741947 528.8253795024877 543.5000937475902C466.35499303123777 628.0644823209857 367.54359590317677 644.017747635563 302.1917580606611 616.4759316707477C236.83992021814532 588.9341157059325 238.27979315663703 478.335225704865 215.13655785841257 411.29937711647756C191.99332256018812 344.2635285280901 181.37440702210267 338.94305014376846 191.1042286291837 294.7038584464874C200.83405023626472 250.4646667492064 222.41368353228728 221.25292982236556 261.83970157240174 198.95125696952852C301.2657196125162 176.64958411669147 309.47205031542927 185.23591009684486 380.3491152217332 187.65582875286987C451.2261801280373 190.07574740889487 571.1170580641704 136.43264464454887 602.0496131226607 210.56686651844888C632.9821681811512 284.7010883923489 591.2957659737378 458.9357051741947 528.8253795024877 543.5000937475902 "></path><path d="M590.1643731776581 221.70998932463613C619.2773661738845 291.4833746177185 580.0431052727896 455.4688962947498 521.2474474174954 535.0589090697104C462.45178956220127 614.6489218446709 369.4528275593203 629.6637597878023 307.9452154722467 603.7420506444469C246.43760338517308 577.8203415010913 247.79277791551817 473.72726855891017 226.01090939954224 410.6347051816043C204.2290408835663 347.54214180429847 194.23476743595648 342.5346327367016 203.39224659556214 300.8977464333783C212.5497257551678 259.260860130055 232.85996885730668 231.76746066949897 269.9668093656497 210.77765092565232C307.07364987399274 189.78784118180562 314.7972552414403 197.8690891631265 381.5050810356088 200.14665966291477C448.21290682977724 202.424230162703 561.0513801814319 151.93660403155383 590.1643731776581 221.70998932463613C619.2773661738845 291.4833746177185 580.0431052727896 455.4688962947498 521.2474474174954 535.0589090697104 "></path><path d="M578.2791027150774 232.85311213082343C605.5725336490397 298.26566084308814 568.7904140542632 452.002087415305 513.6694848149249 526.6177243918305C458.54855557558665 601.2333613683559 371.36202869788576 615.3097719400417 313.69864236625426 591.008169618146C256.0352560346227 566.7065672962501 257.30573215682125 469.1193114129553 236.8852304230938 409.9700332467311C216.46472868936632 350.82075508050684 207.09509733223217 346.12621532963476 215.68023404436246 307.0916344202692C224.26537075649276 268.05705351090364 243.30622366474796 242.28199151663233 278.09388664131956 222.60404488177608C312.8815496178911 202.92609824691982 320.12242964987325 210.50226822940817 382.66101633190624 212.63749057295962C445.19960301393917 214.77271291651107 550.9856717811153 167.44056341855872 578.2791027150774 232.85311213082343C605.5725336490397 298.26566084308814 568.7904140542632 452.002087415305 513.6694848149249 526.6177243918305 "></path><path d="M566.3938322524968 243.99623493701074C591.8677011241948 305.0479470684578 557.5377228357368 448.53527853586024 506.09152221235445 518.1765397139507C454.645321588972 587.8178008920411 373.2712298364512 600.9557840922812 319.45206926026174 578.2742885918451C265.63290868407233 555.592793091409 266.8186863981243 464.51135426700046 247.7595514466454 409.30536131185784C228.7004164951664 354.0993683567153 219.9554272285078 349.717797922568 227.9682214931628 313.2855224071601C235.98101575781772 276.85324689175224 253.75247847218924 252.7965223637657 286.2209639169894 234.43043883789989C318.6894493617895 216.06435531203402 325.4476040583062 223.1354472956898 383.8169516282036 225.12832148300453C442.186299198101 227.1211956703192 540.9199633807988 182.94452280556368 566.3938322524968 243.99623493701074C591.8677011241948 305.0479470684578 557.5377228357368 448.53527853586024 506.09152221235445 518.1765397139507 "></path><path d="M554.5085617899161 255.13935774319805C578.1628685993501 311.8302332938274 546.2850316172103 445.06846965641546 498.5135596097839 509.7353550360708C450.7420876023574 574.4022404157262 375.18043097501663 586.6017962445205 325.2054961542693 565.5404075655442C275.23056133352196 544.4790188865679 276.3316406394274 459.9033971210457 258.63387247019693 408.6406893769847C240.93610430096646 357.3779816329237 232.8157571247835 353.30938051550123 240.2562089419631 319.47941039405106C247.69666075914267 285.6494402726008 264.1987332796305 263.31105321089905 294.34804119265925 246.25683279402364C324.49734910568793 229.20261237714823 330.7727784667391 235.76862636197143 384.9728869245009 237.61915239304938C439.1729953822628 239.46967842412732 530.8542549804822 198.44848219256863 554.5085617899161 255.13935774319805C578.1628685993501 311.8302332938274 546.2850316172103 445.06846965641546 498.5135596097839 509.7353550360708 "></path><path d="M542.6232760685464 266.2825110669634C564.458020815716 318.6125500367752 535.032325139895 441.6016912945488 490.9355817484243 501.2942008757691C446.8388383569537 560.9867104569894 377.089616854793 572.2478389143381 330.95890778948774 552.8065570568215C284.8281987241825 533.3652751993048 285.84457962194136 455.295470492669 269.5081782349594 407.9760479596896C253.17177684797747 360.6566254267102 245.6760717622701 356.90099362601256 252.54418113197437 325.6733288985201C259.41229050167857 294.4456641710276 274.64497282828273 273.82561457561053 302.47510320954 258.08325726772557C330.3052335907973 242.34089995984056 336.097937616383 248.40183594583118 386.1288069620093 250.1100138206724C436.15967630763566 251.81819169551358 520.7885313213767 213.9524720971517 542.6232760685464 266.2825110669634C564.458020815716 318.6125500367752 535.032325139895 441.6016912945488 490.9355817484243 501.2942008757691 "></path><path d="M530.7380056059657 277.42563387315073C550.7531882908713 325.39483626214485 523.7796339213685 438.1348824151039 483.35761914585373 492.85301619788925C442.9356043703391 547.5711499806746 378.99881799335844 557.8938510665776 336.7123346834953 540.0726760305206C294.42585137363216 522.2515009944636 295.35753386324444 450.6875133467141 280.38249925851096 407.31137602481635C265.40746465377754 363.9352387029186 258.5364016585458 360.4925762189457 264.83216858077463 331.867216885411C271.1279355030035 303.2418575518762 285.091227635724 284.3401454227439 310.60218048520983 269.9096512238493C336.1131333346957 255.47915702495476 341.4231120248159 261.03501501211286 387.2847422583067 262.60084473071726C433.1463724917976 264.1666744493217 510.72282292106013 229.4564314841566 530.7380056059657 277.42563387315073C550.7531882908713 325.39483626214485 523.7796339213685 438.1348824151039 483.35761914585373 492.85301619788925 "></path><path d="M518.852735143385 288.5687261617599C537.0483557660265 332.1770919699363 512.5269427028421 434.668043018081 475.7796565432832 484.4118010024313C439.03237038372436 534.1555589867816 380.9080191319239 543.5398327012388 342.4657615775028 527.3387644866416C304.0235040230818 511.1376962720444 304.8704881045475 446.07952568318115 291.25682028206256 406.646673572365C277.64315245957755 367.21382146154883 271.39673155482143 364.0841282943008 277.12015602957496 338.06107435472376C282.8435805043285 312.03802041514666 295.5374824431653 294.8546457522991 318.7292577608797 281.736014662395C341.92103307859406 268.61738357249084 346.74828643324884 273.66816356081637 388.4406775546041 275.09164512318404C430.1330686759594 276.51512668555165 500.65711452074356 244.96036035358344 518.852735143385 288.5687261617599C537.0483557660265 332.1770919699363 512.5269427028421 434.668043018081 475.7796565432832 484.4118010024313 "></path><path d="M506.96746468080437 299.7118794855253C523.3435232411816 338.9594087128841 501.27425148431576 431.20126465621433 468.20169394071274 475.97064684212955C435.12913639710973 520.7400290280448 382.81722027048926 529.1858753710562 348.21918847151034 514.6049139779188C313.6211566725314 500.02395258478134 314.38344234585054 441.4715990548044 302.1311413056141 405.9820321550699C289.8788402653776 370.4924652553354 284.2570614510971 367.67574140481213 289.4081434783753 344.2549928591928C294.55922550565344 320.83424431357344 305.98373725060657 305.36920711701066 326.8563350365495 293.5624391360969C347.7289328224925 281.75567115518317 352.07346084168177 286.3013731446761 389.5966128509015 287.582506550807C427.1197648601213 288.8636399569379 490.591406120427 260.4643502581665 506.96746468080437 299.7118794855253C523.3435232411816 338.9594087128841 501.27425148431576 431.20126465621433 468.20169394071274 475.97064684212955 "></path><path d="M495.0821789594345 310.8550022917126C509.6386754575477 345.7416949382538 490.0215450070002 427.73445577676944 460.62371607935324 467.5294621642497C431.2258871517061 507.32446855173 384.72640615026563 514.8318875232957 353.9726001067288 501.87103295161796C323.218794063192 488.91017837994013 323.89638132836455 436.86364190884956 313.0054470703766 405.3173602201967C302.1145128123886 373.77107853154376 297.11737608858374 371.26732399774534 301.69611566838654 350.4488808460837C306.2748552481894 329.630437694422 316.42997679925884 315.883737964144 334.98339705343034 305.3888330922207C353.53681730760184 294.89392822029737 357.39861999132563 298.9345522109578 390.75253288840986 300.0733374608519C424.1064457854941 301.21212271074603 480.52568246132137 275.9683096451714 495.0821789594345 310.8550022917126C509.6386754575477 345.7416949382538 490.0215450070002 427.73445577676944 460.62371607935324 467.5294621642497 "></path><path d="M483.1969084968539 321.9981250978999C495.9338429327029 352.52398116362343 478.76885378847385 424.26764689732465 453.0457534767827 459.08827748636986C427.3226531650915 493.90890807541507 386.63560728883107 500.4778996755351 359.72602700073634 489.1371519253171C332.8164467126416 477.79640417509904 333.40933556966763 432.25568476289476 323.87976809392813 404.65268828532345C314.3502006181887 377.0496918077522 309.97770598485937 374.85890659067854 313.98410311718686 356.6427688329746C317.99050024951435 338.4266310752706 326.8762316067001 326.3982688112774 343.11047432910016 317.21522704834445C359.34471705150025 308.0321852854116 362.72379439975856 311.56773127723943 391.90846818470726 312.56416837089677C421.09314196965596 313.56060546455416 470.4599740610049 291.47226903217637 483.1969084968539 321.9981250978999C495.9338429327029 352.52398116362343 478.76885378847385 424.26764689732465 453.0457534767827 459.08827748636986 "></path><path d="M471.3116380342732 333.1412479040872C482.229010407858 359.3062673889931 467.5161625699475 420.80083801787987 445.46779087421214 450.64709280849C423.41941917847686 480.49334759910016 388.5448084273965 486.12391182777446 365.47945389474387 476.4032708990162C342.4140993620913 466.68262997025795 342.9222898109707 427.64772761693996 334.75408911747974 403.98801635045027C326.5858884239887 380.3283050839606 322.83803588113506 378.45048918361175 326.2720905659872 362.8366568198655C329.7061452508393 347.22282445611927 337.3224864141414 336.91279965841073 351.23755160477003 329.04162100446825C365.1526167953986 321.1704423505258 368.0489688081915 324.20091034352106 393.06440348100466 325.0549992809417C418.07983815381783 325.9090882183622 460.39426566068835 306.9762284191813 471.3116380342732 333.1412479040872C482.229010407858 359.3062673889931 467.5161625699475 420.80083801787987 445.46779087421214 450.64709280849 "></path><path d="M459.4263675716925 344.28437071027446C468.52417788301324 366.0885536143627 456.26347135142106 417.334029138435 437.8898282716416 442.20590813061017C419.5161851918622 467.0777871227853 390.45400956596194 471.7699239800139 371.2328807887514 463.6693898727153C352.0117520115409 455.56885576541674 352.43524405227373 423.0397704709851 345.6284101410313 403.323344415577C338.8215762297888 383.60691836016895 335.69836577741074 382.04207177654496 338.5600780147875 369.0305448067564C341.42179025216427 356.01901783696786 347.7687412215827 347.4273305055441 359.36462888043985 340.868014960592C370.96051653929703 334.3086994156399 373.3741432166244 336.83408940980274 394.22033877730206 337.5458301909865C415.0665343379797 338.25757097217036 450.3285572603718 322.4801878061862 459.4263675716925 344.28437071027446C468.52417788301324 366.0885536143627 456.26347135142106 417.334029138435 437.8898282716416 442.20590813061017 "></path><path d="M447.5410971091118 355.42749351646177C454.8193453581684 372.87083983973235 445.01078013289464 413.8672202589902 430.31186566907115 433.7647234527303C415.61295120524755 453.66222664647046 392.3632107045273 457.4159361322533 376.98630768275893 450.93550884641445C361.60940466099055 444.45508156057554 361.9481982935768 418.43181332503025 356.5027311645828 402.65867248070384C351.05726403558884 386.8855316363774 348.5586956736864 385.63365436947817 350.84806546358783 375.22443279364734C353.13743525348923 364.8152112178165 358.21499602902395 357.94186135267745 367.4917061561097 352.6944089167158C376.76841628319545 347.4469564807541 378.69931762505735 349.46726847608437 395.37627407359946 350.0366611010314C412.0532305221416 350.6060537259785 440.2628488600552 337.9841471931912 447.5410971091118 355.42749351646177C454.8193453581684 372.87083983973235 445.01078013289464 413.8672202589902 430.31186566907115 433.7647234527303 "></path><path d="M435.65581138774206 366.57063158143814C441.1144975745345 379.6531413238911 433.7580736555792 410.40042663833447 422.73388780771154 425.32355403363954C411.70970195984387 440.2466814289446 394.2723965843037 443.06196354328176 382.7397193179774 438.20164307890263C371.2070420516511 433.3413226145235 371.4611372760908 413.8238714378645 367.3770369293453 401.99401580461966C363.29293658259985 390.1641601713748 361.419010311173 389.22525222120044 363.13603765359903 381.4183360393273C364.8530649960251 373.61141985745417 368.66123557767617 368.4564074585999 375.6187681729905 364.52081813162863C382.5763007683048 360.5852288046574 384.0244767747012 362.10046280115506 396.5321941111078 362.52750726986534C409.0399114475144 362.9545517385757 430.19712520094964 353.4881218389852 435.65581138774206 366.57063158143814C441.1144975745345 379.6531413238911 433.7580736555792 410.40042663833447 422.73388780771154 425.32355403363954 "></path><path d="M423.7705561839504 377.7137391288364C427.40968030847876 386.4354122904717 422.50539769584185 406.93360250010056 415.1559404639301 416.88235409697063C407.8064832320183 426.8311056938407 396.1816129816582 428.70796043673215 388.493161470774 425.4677467938127C380.8047099598898 422.22753315089324 380.97410677618296 409.2158990331206 378.251373211686 401.32932861095736C375.5286396471889 393.44275818879413 374.27935546623775 392.8168195553445 375.4240403611884 387.61220876742914C376.56872525613915 382.4075979795137 379.1075056439065 378.9709230469442 383.74586070744937 376.3471968289634C388.3842157709922 373.72347061098253 389.3496664419232 374.7336266086476 397.68814466619426 375.0183229211212C406.0266228904653 375.3030192335947 420.13143205942214 368.9920659672011 423.7705561839504 377.7137391288364C427.40968030847876 386.4354122904717 422.50539769584185 406.93360250010056 415.1559404639301 416.88235409697063 "></path><path d="M411.8852704625807 388.8568771938127C413.70483252484485 393.21771377463034 411.2526912185264 403.46680887944484 407.5779626025705 408.44118467787985C403.9032339866146 413.41556047631485 398.09079886143456 414.3539878477606 394.24657310599247 412.7338810263009C390.4023473505504 411.11377420484115 390.4870457586969 404.60795714595486 389.12567897644846 400.66467193487324C387.76431219419993 396.7213867237916 387.1396701037243 396.4084174070668 387.7120125511997 393.8061120131091C388.28435499867504 391.2038066191514 389.5537451925587 389.48546915286664 391.8729227243302 388.1736060438762C394.1921002561016 386.8617429348858 394.67482559156707 387.3668209337184 398.8440647037026 387.5091690899551C403.0133038158381 387.6515172461919 410.06570840031657 384.49604061299505 411.8852704625807 388.8568771938127C413.70483252484485 393.21771377463034 411.2526912185264 403.46680887944484 407.5779626025705 408.44118467787985 "></path></g></svg>